#N canvas 0 25 1440 847 12;
#N canvas 550 26 747 736 Sequencer 0;
#X obj 25 12 cnv 19 700 700 empty empty SEQUENCER 20 24 0 24 #b8d4f8 #404040 0;
#X obj 418 486 makenote;
#X obj 418 515 noteout 1;
#X obj 418 423 +;
#X msg 418 374 60;
#X msg 498 374 67;
#X msg 538 374 70, f 4;
#X msg 585 374 72;
#X msg 458 374 63;
#X floatatom 624 341 5 -2 2 0 - - - 0;
#X obj 625 374 * 12;
#X msg 418 452 \$1 80 100;
#X obj 418 287 f;
#X obj 453 287 + 1;
#X obj 418 316 mod 5;
#X obj 418 345 route 0 1 2 3 4;
#X msg 436 258 0;
#X obj 418 228 metro 125;
#X obj 418 199 tgl 19 0 empty empty empty 0 -10 0 12 #fcfcfc #000000 #000000 0 1;
#X obj 198 394 route 0 1 2 3 4;
#X msg 198 472 \$1 69 1;
#X obj 198 501 ctlout 1;
#X msg 198 423 55;
#X msg 238 423 99;
#X msg 364 423 108;
#X msg 278 423 80;
#X msg 318 423 90, f 4;
#X obj 198 336 f;
#X obj 233 336 + 1;
#X obj 198 365 mod 5;
#X msg 216 306 0;
#X obj 198 277 metro 500;
#X floatatom 391 90 5 0 0 0 - - - 0;
#X obj 258 248 / 8;
#X obj 198 248 tgl 19 0 empty empty empty 0 -10 0 12 #fcfcfc #000000 #000000 0 1;
#X obj 198 199 tgl 19 0 empty empty empty 0 -10 0 12 #fcfcfc #000000 #000000 0 1;
#X text 194 178 synchro start;
#X text 367 66 tempo in ms;
#X text 193 225 filter sequence;
#X text 414 178 note sequence;
#X text 263 338 counter;
#X text 483 287 counter;
#X connect 1 0 2 0;
#X connect 1 1 2 1;
#X connect 3 0 11 0;
#X connect 4 0 3 0;
#X connect 5 0 3 0;
#X connect 6 0 3 0;
#X connect 7 0 3 0;
#X connect 8 0 3 0;
#X connect 9 0 10 0;
#X connect 10 0 3 1;
#X connect 11 0 1 0;
#X connect 12 0 13 0;
#X connect 12 0 14 0;
#X connect 13 0 12 1;
#X connect 14 0 15 0;
#X connect 15 0 4 0;
#X connect 15 1 8 0;
#X connect 15 2 5 0;
#X connect 15 3 6 0;
#X connect 15 4 7 0;
#X connect 16 0 12 1;
#X connect 17 0 12 0;
#X connect 18 0 17 0;
#X connect 19 0 22 0;
#X connect 19 1 23 0;
#X connect 19 2 25 0;
#X connect 19 3 26 0;
#X connect 19 4 24 0;
#X connect 20 0 21 0;
#X connect 22 0 20 0;
#X connect 23 0 20 0;
#X connect 24 0 20 0;
#X connect 25 0 20 0;
#X connect 26 0 20 0;
#X connect 27 0 28 0;
#X connect 27 0 29 0;
#X connect 28 0 27 1;
#X connect 29 0 19 0;
#X connect 30 0 27 1;
#X connect 31 0 27 0;
#X connect 32 0 17 1;
#X connect 32 0 33 0;
#X connect 33 0 31 1;
#X connect 34 0 31 0;
#X connect 35 0 18 0;
#X connect 35 0 34 0;
#X restore 23 22 pd Sequencer;
#N canvas 434 231 276 408 filter1FreqRes 0;
#X obj 24 12 cnv 19 100 325 empty empty Cutoff 20 10 0 16 #ffccdc #404040 0;
#X msg 44 289 \$1 69 1;
#X floatatom 44 261 5 0 127 0 - - - 0;
#X obj 44 57 vsl 19 162 0 127 0 0 empty empty empty 0 -9 0 12 #fcfcfc #000000 #000000 0 1;
#X obj 44 232 i;
#X obj 135 12 cnv 19 100 325 empty empty Resonance 5 10 0 16 #bdf8cb #404040 0;
#X msg 156 289 \$1 69 1;
#X floatatom 156 261 5 0 127 0 - - - 0;
#X obj 156 57 vsl 19 162 0 127 0 0 empty empty empty 0 -9 0 12 #fcfcfc #000000 #000000 0 1;
#X obj 156 232 i;
#X obj 44 358 ctlout;
#X connect 1 0 10 0;
#X connect 2 0 1 0;
#X connect 3 0 4 0;
#X connect 4 0 2 0;
#X connect 6 0 10 0;
#X connect 7 0 6 0;
#X connect 8 0 9 0;
#X connect 9 0 7 0;
#X restore 24 52 pd filter1FreqRes;
#N canvas 0 634 799 240 BlofeldMonitor 0;
#X obj 27 23 notein;
#X floatatom 27 52 5 0 0 0 - - noteInNote 0;
#X floatatom 74 52 5 0 0 0 - - noteInVelocity 0;
#X floatatom 121 52 5 0 0 0 - - - 0;
#X obj 193 26 ctlin;
#X floatatom 287 55 5 0 0 0 - - - 0;
#X obj 346 25 bendin;
#X obj 346 82 bendout;
#X floatatom 346 54 5 0 0 0 - - - 0;
#X floatatom 393 54 5 0 0 0 - - - 0;
#X obj 464 26 sysexin;
#X msg 465 144 240 62 19 0 32 0 0 114 13 247, f 29;
#X msg 619 115 set;
#X obj 619 84 select 240;
#X msg 550 84 add2 \$1;
#X obj 464 84 select 247;
#X obj 464 55 t f f f;
#X listbox 465 173 31 0 0 0 - - SysEx 0;
#X obj 193 83 ctlout;
#X obj 27 80 noteout;
#X floatatom 240 55 5 0 0 0 - - CtrlInCtrl 0;
#X floatatom 193 55 5 0 0 0 - - ControlInValue 0;
#X connect 0 0 1 0;
#X connect 0 0 19 0;
#X connect 0 1 2 0;
#X connect 0 1 19 1;
#X connect 0 2 3 0;
#X connect 0 2 19 2;
#X connect 4 0 21 0;
#X connect 4 0 18 0;
#X connect 4 1 20 0;
#X connect 4 1 18 1;
#X connect 4 2 5 0;
#X connect 4 2 18 2;
#X connect 6 0 8 0;
#X connect 6 1 9 0;
#X connect 8 0 7 0;
#X connect 9 0 7 1;
#X connect 10 0 16 0;
#X connect 11 0 17 0;
#X connect 12 0 11 0;
#X connect 13 0 12 0;
#X connect 14 0 11 0;
#X connect 15 0 11 0;
#X connect 16 0 15 0;
#X connect 16 1 14 0;
#X connect 16 2 13 0;
#X restore 24 82 pd BlofeldMonitor;
#X obj 329 1520 cnv 19 500 500 empty empty empty 20 12 0 12 #000000 #404040 0;
#N canvas 67 25 677 484 BlofeldCanvasDesigner 0;
#X obj 101 101 cnv 19 192 94 empty empty Blofeld\ Canvas\ Designer 20 12 0 12 #128689 #ffffff 0;
#X floatatom 410 112 5 0 0 2 Width \$0-Width - 0;
#X floatatom 467 113 5 0 0 2 Height \$0-Height - 0;
#X obj 124 155 nbx 5 17 -1e+37 1e+37 0 1 \$0-Width empty Width 0 -10 0 12 #000000 #00ff04 #ffffff 912 256;
#X obj 207 155 nbx 5 17 -1e+37 1e+37 0 1 \$0-Height empty Height 0 -10 0 12 #000000 #00ff04 #ffffff 378 256;
#X obj 410 170 pack f f;
#X obj 467 141 t b f;
#X msg 410 199 vis_size \$1 \$2;
#X obj 410 228 s \$0-BlofeldModuleCanvas;
#X obj 104 219 cnv 19 912 378 empty \$0-BlofeldModuleCanvas empty 20 12 0 12 #e0e0e0 #404040 0;
#X connect 1 0 5 0;
#X connect 2 0 6 0;
#X connect 5 0 7 0;
#X connect 6 0 5 0;
#X connect 6 1 5 1;
#X connect 7 0 8 0;
#X coords 0 -1 1 1 194 96 1 100 100;
#X restore 23 122 pd BlofeldCanvasDesigner;
#N canvas 333 314 450 300 BlofeldMonitorUI 0;
#X obj 101 101 cnv 19 283 179 empty empty MIDI\ Input\ Monitor 20 12 0 12 #e0e0e0 #404040 0;
#X obj 132 147 nbx 5 17 -1e+37 1e+37 0 0 empty noteInNote Note 0 -10 0 12 #fcfcfc #000000 #000000 0 256;
#X obj 235 147 nbx 5 17 -1e+37 1e+37 0 0 empty noteInVelocity Velocity 0 -10 0 12 #fcfcfc #000000 #000000 0 256;
#X obj 131 194 nbx 5 17 -1e+37 1e+37 0 0 empty CtrlInCtrl Controller 0 -10 0 12 #fcfcfc #000000 #000000 0 256;
#X obj 234 194 nbx 5 17 -1e+37 1e+37 0 0 empty ControlInValue Value 0 -10 0 12 #fcfcfc #000000 #000000 0 256;
#X obj 131 241 cnv 10 218 18 empty empty empty 20 12 0 12 #ffffff #404040 0;
#X listbox 131 241 31 0 0 2 System\ Exclusive SysEx - 0;
#X coords 0 -1 1 1 285 181 1 100 100;
#X restore 17 240 pd BlofeldMonitorUI;
#X obj 17 441 BlofeldModule;
#X obj 17 629 BlofeldModuleWithList;
#N canvas 7 25 994 684 Filter1 0;
#X obj 101 101 cnv 19 912 487 empty empty empty 20 12 0 12 #b00604 #404040 0;
#X obj 121 121 BlofeldFilter1_1;
#X obj 419 121 BlofeldFilter1_2;
#X obj 717 121 BlofeldFilter1_3;
#X obj 121 301 BlofeldFilter1_4;
#X obj 419 301 BlofeldFilter1_5;
#X obj 717 301 BlofeldFilter1_6;
#X obj 121 481 BlofeldFilterRouting;
#X coords 0 -1 1 1 914 489 1 100 100;
#X restore 317 11 pd Filter1;
#N canvas 49 60 994 684 Filter2 0;
#X obj 101 101 cnv 19 912 378 empty empty empty 20 12 0 12 #b00604 #404040 0;
#X obj 121 121 BlofeldFilter2_1;
#X obj 419 121 BlofeldFilter2_2;
#X obj 717 121 BlofeldFilter2_3;
#X obj 121 301 BlofeldFilter2_4;
#X obj 419 301 BlofeldFilter2_5;
#X obj 717 301 BlofeldFilter2_6;
#X coords 0 -1 1 1 914 380 1 100 100;
#X restore 317 501 pd Filter2;
