#N canvas 0 25 1052 847 12;
#N canvas 87 44 499 603 BlofeldMonitorUI 0;
#X obj 101 101 cnv 19 283 179 empty empty MIDI\ Input\ Monitor 20 12 0 12 #e0e0e0 #404040 0;
#X obj 132 147 nbx 5 17 -1e+37 1e+37 0 0 empty noteInNote Note 0 -10 0 12 #fcfcfc #000000 #000000 0 256;
#X obj 235 147 nbx 5 17 -1e+37 1e+37 0 0 empty noteInVelocity Velocity 0 -10 0 12 #fcfcfc #000000 #000000 0 256;
#X obj 131 194 nbx 5 17 -1e+37 1e+37 0 0 empty CtrlInCtrl Controller 0 -10 0 12 #fcfcfc #000000 #000000 0 256;
#X obj 234 194 nbx 5 17 -1e+37 1e+37 0 0 empty ControlInValue Value 0 -10 0 12 #fcfcfc #000000 #000000 0 256;
#X obj 131 241 cnv 10 218 18 empty empty empty 20 12 0 12 #ffffff #404040 0;
#X listbox 131 241 31 0 0 2 System\ Exclusive SysEx - 0;
#X coords 0 -1 1 1 285 181 1 100 100;
#X restore 399 101 pd BlofeldMonitorUI;
#X listbox 406 317 31 0 0 2 System\ Exclusive SysEx - 0;
#N canvas 290 167 450 408 ModuleParams 0;
#X obj 27 88 hsl 162 19 0 11 0 1 empty \$0-BlofeldModule1 Module\ 1 -2 -10 0 12 #fcfcfc #000000 #000000 0 1;
#X obj 274 88 hsl 162 19 0 127 0 1 empty \$0-BlofeldModule2 Module\ 2 -2 -10 0 12 #fcfcfc #000000 #000000 0 1;
#X obj 24 117 i;
#X obj 271 117 i;
#X symbolatom 63 233 10 0 0 0 List - \$0-Text 0;
#X obj 24 297 midiout;
#X obj 271 175 ctlout;
#X obj 34 25 text define -k \$0-Names;
#A set Clipping \; Tube \; Hard \; Medium \; Soft \; Pickup_1 \; Pickup_2 \; Rectifier \; Square \; Binary \; Overflow \; Sine_Shaper \; Osc_1_Mod \;;
#X obj 63 146 t b f;
#X msg 110 175 line \$1;
#X msg 63 175 step;
#X obj 63 204 text sequence \$0-Names;
#X msg 271 146 \$1 71 1;
#X msg 24 268 240 62 19 0 32 0 0 82 \$1 247;
#X connect 0 0 2 0;
#X connect 1 0 3 0;
#X connect 2 0 13 0;
#X connect 2 0 8 0;
#X connect 3 0 12 0;
#X connect 8 0 10 0;
#X connect 8 1 9 0;
#X connect 9 0 11 0;
#X connect 10 0 11 0;
#X connect 11 0 4 0;
#X connect 12 0 6 0;
#X connect 13 0 5 0;
#X restore 101 287 pd ModuleParams;
#N canvas 101 210 657 596 BlofeldModuleUI 0;
#N canvas 67 25 677 484 BlofeldCanvasDesigner 0;
#X obj 101 101 cnv 19 192 94 empty empty Blofeld\ Canvas\ Designer 20 12 0 12 #128689 #ffffff 0;
#X floatatom 410 112 5 0 0 2 Width \$0-Width - 0;
#X floatatom 467 113 5 0 0 2 Height \$0-Height - 0;
#X obj 124 155 nbx 5 17 -1e+37 1e+37 0 1 \$0-Width empty Width 0 -10 0 12 #000000 #00ff04 #ffffff 84 256;
#X obj 207 155 nbx 5 17 -1e+37 1e+37 0 1 \$0-Height empty Height 0 -10 0 12 #000000 #00ff04 #ffffff 18 256;
#X obj 410 170 pack f f;
#X obj 467 141 t b f;
#X msg 410 199 vis_size \$1 \$2;
#X obj 410 228 s \$0-BlofeldModuleCanvas;
#X obj 104 219 cnv 19 84 18 empty \$0-BlofeldModuleCanvas empty 20 12 0 12 #e0e0e0 #404040 0;
#X connect 1 0 5 0;
#X connect 2 0 6 0;
#X connect 5 0 7 0;
#X connect 6 0 5 0;
#X connect 6 1 5 1;
#X connect 7 0 8 0;
#X coords 0 -1 1 1 194 96 1 100 100;
#X restore 386 101 pd BlofeldCanvasDesigner;
#X obj 101 101 cnv 19 272 154 empty empty Filter\ 1-4 20 12 0 12 #e0e0e0 #404040 0;
#X obj 320 197 bng 19 250 50 0 empty empty Reset 0 -10 0 12 #fcfcfc #000000 #000000;
#X obj 319 146 bng 19 250 50 0 empty empty Reset 0 -10 0 12 #fcfcfc #000000 #000000;
#X obj 135 197 hsl 162 19 0 12 0 1 \$0-BlofeldModule1 \$0-BlofeldModule1Reset Drive\ Curve -2 -10 0 12 #fcfcfc #000000 #000000 0 1;
#X obj 135 146 hsl 162 19 0 127 0 1 \$0-BlofeldModule2 \$0-BlofeldModule2Reset Drive -2 -10 0 12 #fcfcfc #000000 #000000 0 1;
#X obj 319 329 s \$0-BlofeldModule1Reset;
#X obj 319 397 s \$0-BlofeldModule2Reset;
#X msg 319 300 0;
#X obj 205 223 cnv 10 84 18 empty \$0-BlofeldModuleCanvas empty 20 12 0 12 #ffffff #404040 0;
#X symbolatom 205 223 12 0 0 0 - \$0-Text - 0;
#X msg 319 368 0;
#X connect 2 0 8 0;
#X connect 3 0 11 0;
#X connect 8 0 6 0;
#X connect 11 0 7 0;
#X coords 0 -1 1 1 274 156 1 100 100;
#X restore 101 101 pd BlofeldModuleUI;
#X msg 408 354 240 62 19 0 32 0 0 82 \$1 247;
#X coords 0 -1 1 1 276 158 1 100 100;
