#N canvas 5 25 799 847 12;
#N canvas 87 44 499 603 BlofeldMonitorUI 0;
#X obj 101 101 cnv 19 283 179 empty empty MIDI\ Input\ Monitor 20 12 0 12 #e0e0e0 #404040 0;
#X obj 132 147 nbx 5 17 -1e+37 1e+37 0 0 empty noteInNote Note 0 -10 0 12 #fcfcfc #000000 #000000 0 256;
#X obj 235 147 nbx 5 17 -1e+37 1e+37 0 0 empty noteInVelocity Velocity 0 -10 0 12 #fcfcfc #000000 #000000 0 256;
#X obj 131 194 nbx 5 17 -1e+37 1e+37 0 0 empty CtrlInCtrl Controller 0 -10 0 12 #fcfcfc #000000 #000000 0 256;
#X obj 234 194 nbx 5 17 -1e+37 1e+37 0 0 empty ControlInValue Value 0 -10 0 12 #fcfcfc #000000 #000000 0 256;
#X obj 131 241 cnv 10 218 18 empty empty empty 20 12 0 12 #ffffff #404040 0;
#X listbox 131 241 31 0 0 2 System\ Exclusive SysEx - 0;
#X coords 0 -1 1 1 285 181 1 100 100;
#X restore 399 101 pd BlofeldMonitorUI;
#X listbox 406 317 31 0 0 2 System\ Exclusive SysEx - 0;
#X msg 408 353 240 62 19 0 32 0 0 89 \$1 247;
#N canvas 127 276 657 596 BlofeldModuleUI 0;
#N canvas 67 25 677 484 BlofeldCanvasDesigner 0;
#X obj 101 101 cnv 19 192 94 empty empty Blofeld\ Canvas\ Designer 20 12 0 12 #128689 #ffffff 0;
#X floatatom 410 112 5 0 0 2 Width \$0-Width - 0;
#X floatatom 467 113 5 0 0 2 Height \$0-Height - 0;
#X obj 124 155 nbx 5 17 -1e+37 1e+37 0 1 \$0-Width empty Width 0 -10 0 12 #000000 #00ff04 #ffffff 272 256;
#X obj 207 155 nbx 5 17 -1e+37 1e+37 0 1 \$0-Height empty Height 0 -10 0 12 #000000 #00ff04 #ffffff 154 256;
#X obj 410 170 pack f f;
#X obj 467 141 t b f;
#X msg 410 199 vis_size \$1 \$2;
#X obj 410 228 s \$0-BlofeldModuleCanvas;
#X obj 104 219 cnv 19 272 154 empty \$0-BlofeldModuleCanvas empty 20 12 0 12 #e0e0e0 #404040 0;
#X connect 1 0 5 0;
#X connect 2 0 6 0;
#X connect 5 0 7 0;
#X connect 6 0 5 0;
#X connect 6 1 5 1;
#X connect 7 0 8 0;
#X coords 0 -1 1 1 194 96 1 100 100;
#X restore 386 100 pd BlofeldCanvasDesigner;
#X obj 101 101 cnv 19 272 154 empty \$0-BlofeldModuleCanvas Filter\ 2-1 20 12 0 12 #e0e0e0 #404040 0;
#X obj 319 151 bng 19 250 50 0 empty empty Reset 0 -10 0 12 #fcfcfc #000000 #000000;
#X obj 319 210 bng 19 250 50 0 empty empty Reset 0 -10 0 12 #fcfcfc #000000 #000000;
#X obj 135 151 hsl 162 19 0 127 0 1 \$0-BlofeldModule1 \$0-BlofeldModule1Reset Keytrack -2 -10 0 12 #fcfcfc #000000 #000000 8113 1;
#X obj 135 210 hsl 162 19 0 127 0 1 \$0-BlofeldModule2 \$0-BlofeldModule2Reset Env\ Velocity -2 -10 0 12 #fcfcfc #000000 #000000 8113 1;
#X obj 319 328 s \$0-BlofeldModule1Reset;
#X obj 319 396 s \$0-BlofeldModule2Reset;
#X msg 319 299 64;
#X msg 319 367 64;
#X connect 2 0 8 0;
#X connect 3 0 9 0;
#X connect 8 0 6 0;
#X connect 9 0 7 0;
#X coords 0 -1 1 1 274 156 1 100 100;
#X restore 101 101 pd BlofeldModuleUI;
#N canvas 277 407 450 185 ModuleParams 0;
#X obj 27 38 hsl 162 19 0 127 0 1 empty \$0-BlofeldModule1 Module\ 1 -2 -10 0 12 #fcfcfc #000000 #000000 8100 1;
#X obj 224 38 hsl 162 19 0 127 0 1 empty \$0-BlofeldModule2 Module\ 2 -2 -10 0 12 #fcfcfc #000000 #000000 8100 1;
#X obj 24 67 i;
#X obj 24 125 ctlout;
#X obj 221 67 i;
#X obj 221 125 ctlout;
#X msg 24 96 \$1 83 1;
#X msg 221 96 \$1 85 1;
#X connect 0 0 2 0;
#X connect 1 0 4 0;
#X connect 2 0 6 0;
#X connect 4 0 7 0;
#X connect 6 0 3 0;
#X connect 7 0 5 0;
#X restore 101 287 pd ModuleParams;
#X coords 0 -1 1 1 276 158 1 100 100;
